{"title":"Avatar The Last Airbender Book 1 - Water 720p Upscaled 75mb MrLs","uid":7642913,"size":1469024226,"categoryP":"video","categoryS":"hd___tv_shows","magnet":"?xt=urn:btih:b51a6b61fb7ab9d9afef9cb2b72d62e111c9735c&amp;dn=Avatar+The+Last+Airbender+Book+1+-+Water+720p+Upscaled+75mb+MrLs&amp;tr=udp%3A%2F%2Ftracker.openbittorrent.com%3A80&amp;tr=udp%3A%2F%2Fopen.demonii.com%3A1337&amp;tr=udp%3A%2F%2Ftracker.coppersurfer.tk%3A6969&amp;tr=udp%3A%2F%2Fexodus.desync.com%3A6969","seeders":3,"leechers":0,"uploader":"mf-den","files":22,"time":1347826419,"description":"This is only a 720p Upscaled version as no proper bluray version has been released \n\nyet.\n\nFile details:\n\nFormat                           : Matroska\nFile size                        : 74.4 MiB\nDuration                         : 23mn 29s\nOverall bit rate                 : 443 Kbps\n\nVideo\nID                               : 1\nFormat                           : AVC\nFormat/Info                      : Advanced Video Codec\nFormat profile                   : &lt;a class=&quot;__cf_email__&quot; href=&quot;/cdn-cgi/l/email-protection&quot; data-cfemail=&quot;1c54757b745c5028322c&quot;&gt;[email&amp;#160;protected]&lt;/a&gt;&lt;script cf-hash='f9e31' type=&quot;text/javascript&quot;&gt;\n/* &lt;![CDATA[ */!function(){try{var t=&quot;currentScript&quot;in document?document.currentScript:function(){for(var t=document.getElementsByTagName(&quot;script&quot;),e=t.length;e--;)if(t[e].getAttribute(&quot;cf-hash&quot;))return t[e]}();if(t&amp;&amp;t.previousSibling){var e,r,n,i,c=t.previousSibling,a=c.getAttribute(&quot;data-cfemail&quot;);if(a){for(e=&quot;&quot;,r=parseInt(a.substr(0,2),16),n=2;a.length-n;n+=2)i=parseInt(a.substr(n,2),16)^r,e+=String.fromCharCode(i);e=document.createTextNode(e),c.parentNode.replaceChild(e,c)}}}catch(u){}}();/* ]]&gt; */&lt;/script&gt;\nFormat settings, CABAC           : Yes\nFormat settings, ReFrames        : 8 frames\nCodec ID                         : V_MPEG4/ISO/AVC\nDuration                         : 23mn 29s\nBit rate                         : 386 Kbps\nWidth                            : 960 pixels\nHeight                           : 720 pixels\nDisplay aspect ratio             : 4:3\nFrame rate mode                  : Variable\nFrame rate                       : 29.970 fps\nColor space                      : YUV\nChroma subsampling               : 4:2:0\nBit depth                        : 8 bits\nScan type                        : Progressive\nBits/(Pixel*Frame)               : 0.019\nStream size                      : 64.9 MiB (87%)\n\nAudio\nID                               : 2\nFormat                           : Vorbis\nFormat settings, Floor           : 1\nCodec ID                         : A_VORBIS\nDuration                         : 23mn 29s\nBit rate                         : 48.0 Kbps\nChannel(s)                       : 1 channel\nSampling rate                    : 48.0 KHz\nCompression mode                 : Lossy\nStream size                      : 8.06 MiB (11%)\nWriting library                  : aoTuV 20110424 (UTC 2011-04-24)\n\nBooks 2 &amp; 3 or seasons 2 &amp; 3 will be uploaded soon.\n\n\nVisit http://www.minirlss.net - The No. 1 source for minimkvs for tv series in both \n\n720p and 480p quality for latest updates and more....\n\nScreenshots added.\n\nEnjoy and pls seed back\t\n","torrent":{"xt":"urn:btih:b51a6b61fb7ab9d9afef9cb2b72d62e111c9735c","amp;dn":"Avatar+The+Last+Airbender+Book+1+-+Water+720p+Upscaled+75mb+MrLs","amp;tr":["udp%3A%2F%2Ftracker.openbittorrent.com%3A80","udp%3A%2F%2Fopen.demonii.com%3A1337","udp%3A%2F%2Ftracker.coppersurfer.tk%3A6969","udp%3A%2F%2Fexodus.desync.com%3A6969"],"infoHash":"b51a6b61fb7ab9d9afef9cb2b72d62e111c9735c","infoHashBuffer":{"type":"Buffer","data":[181,26,107,97,251,122,185,217,175,239,156,178,183,45,98,225,17,201,115,92]},"announce":[],"urlList":[]}}